<svg width="16" height="17" viewBox="0 0 16 17" fill="none" xmlns="http://www.w3.org/2000/svg">
<g clip-path="url(#clip0_90_7506)">
<path d="M8 2.50016H3.33333C2.97971 2.50016 2.64057 2.64064 2.39052 2.89069C2.14048 3.14074 2 3.47987 2 3.8335V13.1668C2 13.5205 2.14048 13.8596 2.39052 14.1096C2.64057 14.3597 2.97971 14.5002 3.33333 14.5002H12.6667C13.0203 14.5002 13.3594 14.3597 13.6095 14.1096C13.8595 13.8596 14 13.5205 14 13.1668V8.50016M12.2501 2.25015C12.5153 1.98493 12.875 1.83594 13.2501 1.83594C13.6251 1.83594 13.9848 1.98493 14.2501 2.25015C14.5153 2.51537 14.6643 2.87508 14.6643 3.25015C14.6643 3.62522 14.5153 3.98493 14.2501 4.25015L8.2414 10.2595C8.0831 10.4176 7.88753 10.5334 7.67273 10.5962L5.7574 11.1562C5.70003 11.1729 5.63922 11.1739 5.58134 11.1591C5.52345 11.1442 5.47061 11.1141 5.42836 11.0719C5.38611 11.0296 5.35599 10.9768 5.34116 10.9189C5.32633 10.861 5.32733 10.8002 5.34406 10.7428L5.90406 8.82748C5.96708 8.61285 6.08309 8.41752 6.2414 8.25948L12.2501 2.25015Z" stroke="#FA9302" stroke-width="2" stroke-linecap="round" stroke-linejoin="round"/>
</g>
<defs>
<clipPath id="clip0_90_7506">
<rect width="16" height="16" fill="white" transform="translate(0 0.5)"/>
</clipPath>
</defs>
</svg>
