<svg width="52" height="52" viewBox="0 0 52 52" fill="none" xmlns="http://www.w3.org/2000/svg">
<rect width="52" height="52" rx="6" fill="#FA9302"/>
<path d="M36 20.8V21.4333C36 21.5173 35.9666 21.5979 35.9073 21.6573C35.8479 21.7166 35.7673 21.75 35.6833 21.75H34.7333V22.225C34.7333 22.4873 34.5207 22.7 34.2583 22.7H18.7417C18.4793 22.7 18.2667 22.4873 18.2667 22.225V21.75H17.3167C17.2327 21.75 17.1521 21.7166 17.0927 21.6573C17.0334 21.5979 17 21.5173 17 21.4333V20.8C17 20.7374 17.0186 20.6761 17.0534 20.624C17.0882 20.572 17.1377 20.5314 17.1956 20.5074L26.3789 17.0241C26.4564 16.992 26.5436 16.992 26.6211 17.0241L35.8044 20.5074C35.8623 20.5314 35.9118 20.572 35.9466 20.624C35.9814 20.6761 36 20.7374 36 20.8ZM35.05 32.8333H17.95C17.4253 32.8333 17 33.2587 17 33.7833V34.4167C17 34.5007 17.0334 34.5812 17.0927 34.6406C17.1521 34.7 17.2327 34.7333 17.3167 34.7333H35.6833C35.7673 34.7333 35.8479 34.7 35.9073 34.6406C35.9666 34.5812 36 34.5007 36 34.4167V33.7833C36 33.2587 35.5747 32.8333 35.05 32.8333ZM20.1667 23.3333V30.9333H18.7417C18.4793 30.9333 18.2667 31.146 18.2667 31.4083V32.2H34.7333V31.4083C34.7333 31.146 34.5207 30.9333 34.2583 30.9333H32.8333V23.3333H30.3V30.9333H27.7667V23.3333H25.2333V30.9333H22.7V23.3333H20.1667Z" fill="white"/>
</svg>
