<svg width="52" height="52" viewBox="0 0 52 52" fill="none" xmlns="http://www.w3.org/2000/svg">
<rect width="52" height="52" rx="6" fill="#FA9302"/>
<path d="M39 21.1075V17C39 16.4696 38.7893 15.9609 38.4142 15.5858C38.0391 15.2107 37.5304 15 37 15H15C14.4696 15 13.9609 15.2107 13.5858 15.5858C13.2107 15.9609 13 16.4696 13 17V33C13 33.5304 13.2107 34.0391 13.5858 34.4142C13.9609 34.7893 14.4696 35 15 35H29V38C28.9999 38.1705 29.0434 38.3383 29.1264 38.4873C29.2093 38.6363 29.329 38.7616 29.4741 38.8513C29.6192 38.941 29.7847 38.9921 29.9551 38.9997C30.1255 39.0074 30.295 38.9713 30.4475 38.895L34 37.1175L37.5525 38.895C37.705 38.9713 37.8745 39.0074 38.0449 38.9997C38.2153 38.9921 38.3808 38.941 38.5259 38.8513C38.671 38.7616 38.7907 38.6363 38.8736 38.4873C38.9566 38.3383 39.0001 38.1705 39 38V30.8925C40.2819 29.5867 41.0002 27.8299 41.0002 26C41.0002 24.1701 40.2819 22.4133 39 21.1075ZM26 28H19C18.7348 28 18.4804 27.8946 18.2929 27.7071C18.1054 27.5196 18 27.2652 18 27C18 26.7348 18.1054 26.4804 18.2929 26.2929C18.4804 26.1054 18.7348 26 19 26H26C26.2652 26 26.5196 26.1054 26.7071 26.2929C26.8946 26.4804 27 26.7348 27 27C27 27.2652 26.8946 27.5196 26.7071 27.7071C26.5196 27.8946 26.2652 28 26 28ZM26 24H19C18.7348 24 18.4804 23.8946 18.2929 23.7071C18.1054 23.5196 18 23.2652 18 23C18 22.7348 18.1054 22.4804 18.2929 22.2929C18.4804 22.1054 18.7348 22 19 22H26C26.2652 22 26.5196 22.1054 26.7071 22.2929C26.8946 22.4804 27 22.7348 27 23C27 23.2652 26.8946 23.5196 26.7071 23.7071C26.5196 23.8946 26.2652 24 26 24ZM37 36.3825L34.4475 35.105C34.3086 35.0355 34.1554 34.9993 34 34.9993C33.8446 34.9993 33.6914 35.0355 33.5525 35.105L31 36.3825V32.3237C31.9374 32.769 32.9622 33 34 33C35.0378 33 36.0626 32.769 37 32.3237V36.3825ZM34 31C33.0111 31 32.0444 30.7068 31.2222 30.1573C30.3999 29.6079 29.759 28.827 29.3806 27.9134C29.0022 26.9998 28.9031 25.9945 29.0961 25.0245C29.289 24.0546 29.7652 23.1637 30.4645 22.4645C31.1637 21.7652 32.0546 21.289 33.0245 21.0961C33.9945 20.9031 34.9998 21.0022 35.9134 21.3806C36.8271 21.759 37.6079 22.3999 38.1574 23.2221C38.7068 24.0444 39 25.0111 39 26C39 27.3261 38.4732 28.5979 37.5355 29.5355C36.5979 30.4732 35.3261 31 34 31Z" fill="white"/>
</svg>
