<svg width="30" height="30" viewBox="0 0 30 30" fill="none" xmlns="http://www.w3.org/2000/svg">
<path d="M26.2506 8.4121C26.2256 8.4121 26.1881 8.4121 26.1506 8.4121C19.5381 7.7496 12.9381 7.4996 6.40057 8.1621L3.85057 8.4121C3.32557 8.4621 2.86307 8.0871 2.81307 7.5621C2.76307 7.0371 3.13807 6.5871 3.65057 6.5371L6.20057 6.2871C12.8506 5.6121 19.5881 5.8746 26.3381 6.5371C26.8506 6.5871 27.2256 7.0496 27.1756 7.5621C27.1381 8.0496 26.7256 8.4121 26.2506 8.4121Z" fill="#344054"/>
<path d="M10.6259 7.15C10.5759 7.15 10.5259 7.15 10.4634 7.1375C9.96343 7.05 9.61343 6.5625 9.70093 6.0625L9.97593 4.425C10.1759 3.225 10.4509 1.5625 13.3634 1.5625H16.6384C19.5634 1.5625 19.8384 3.2875 20.0259 4.4375L20.3009 6.0625C20.3884 6.575 20.0384 7.0625 19.5384 7.1375C19.0259 7.225 18.5384 6.875 18.4634 6.375L18.1884 4.75C18.0134 3.6625 17.9759 3.45 16.6509 3.45H13.3759C12.0509 3.45 12.0259 3.625 11.8384 4.7375L11.5509 6.3625C11.4759 6.825 11.0759 7.15 10.6259 7.15Z" fill="#292D32"/>
<path d="M19.013 28.4375H10.988C6.62548 28.4375 6.45048 26.025 6.31298 24.075L5.50048 11.4875C5.46298 10.975 5.86298 10.525 6.37548 10.4875C6.90048 10.4625 7.33798 10.85 7.37548 11.3625L8.18798 23.95C8.32548 25.85 8.37548 26.5625 10.988 26.5625H19.013C21.638 26.5625 21.688 25.85 21.813 23.95L22.6255 11.3625C22.663 10.85 23.113 10.4625 23.6255 10.4875C24.138 10.525 24.538 10.9625 24.5005 11.4875L23.688 24.075C23.5505 26.025 23.3755 28.4375 19.013 28.4375Z" fill="#292D32"/>
<path d="M17.0746 21.5625H12.9121C12.3996 21.5625 11.9746 21.1375 11.9746 20.625C11.9746 20.1125 12.3996 19.6875 12.9121 19.6875H17.0746C17.5871 19.6875 18.0121 20.1125 18.0121 20.625C18.0121 21.1375 17.5871 21.5625 17.0746 21.5625Z" fill="#292D32"/>
<path d="M18.125 16.5625H11.875C11.3625 16.5625 10.9375 16.1375 10.9375 15.625C10.9375 15.1125 11.3625 14.6875 11.875 14.6875H18.125C18.6375 14.6875 19.0625 15.1125 19.0625 15.625C19.0625 16.1375 18.6375 16.5625 18.125 16.5625Z" fill="#292D32"/>
</svg>
