<svg width="28" height="28" viewBox="0 0 28 28" fill="none" xmlns="http://www.w3.org/2000/svg">
<rect width="28" height="28" rx="6" fill="#FA9302"/>
<path opacity="0.598982" d="M21.3903 9.92812L19.5174 6.80312C19.4046 6.61509 19.2016 6.5 18.9825 6.5H8.99415C8.77504 6.5 8.572 6.61509 8.45915 6.80312L6.58635 9.92812C6.52797 10.0253 6.49707 10.1366 6.49707 10.25C6.49466 11.6276 7.60759 12.7465 8.98354 12.75H8.98853C9.60515 12.7516 10.2003 12.5232 10.6578 12.1094C11.603 12.9646 13.0413 12.9646 13.9864 12.1094C14.932 12.9665 16.3726 12.9665 17.3181 12.1094C18.0502 12.7706 19.1028 12.9375 20.0031 12.5352C20.9034 12.1329 21.4822 11.2371 21.4795 10.25C21.4795 10.1366 21.4486 10.0253 21.3903 9.92812Z" fill="white"/>
<path d="M18.9927 13.678C18.4124 13.6785 17.8399 13.526 17.3203 13.2324L17.3109 13.2374C16.4249 13.7394 15.3993 13.8186 14.4617 13.4573C14.2994 13.3953 14.1408 13.3209 13.9873 13.2346L13.9804 13.2381C13.0947 13.7405 12.0691 13.8194 11.1319 13.4573C10.9697 13.3953 10.8114 13.3209 10.6581 13.2346C10.1394 13.5273 9.5679 13.6791 8.98877 13.678C8.78137 13.6757 8.57448 13.6544 8.37012 13.6141V20.7729C8.37012 21.1648 8.64961 21.4824 8.99439 21.4824H12.74V17.2254H15.2371V21.4824H18.9827C19.3275 21.4824 19.607 21.1648 19.607 20.7729V13.6113C19.4041 13.6526 19.1987 13.6749 18.9927 13.678Z" fill="white"/>
</svg>
