<svg width="28" height="28" viewBox="0 0 28 28" fill="none" xmlns="http://www.w3.org/2000/svg">
<rect width="28" height="28" rx="6" fill="white"/>
<path opacity="0.6" d="M10.7857 12.5H9.5V7.1C9.5 6.7682 9.78736 6.5 10.1429 6.5H17.8571C18.2126 6.5 18.5 6.7682 18.5 7.1V10.7H17.2143V7.7H10.7857V12.5Z" fill="#FA9302"/>
<path fill-rule="evenodd" clip-rule="evenodd" d="M15.25 11.75H20.875C21.2206 11.75 21.5 12.0224 21.5 12.3594V20.8906C21.5 21.2276 21.2206 21.5 20.875 21.5H7.125C6.77937 21.5 6.5 21.2276 6.5 20.8906V14.7969C6.5 14.4599 6.77937 14.1875 7.125 14.1875H12.75C13.0956 14.1875 13.375 14.4599 13.375 14.7969V20.2812H14.625V12.3594C14.625 12.0224 14.9044 11.75 15.25 11.75ZM9 19.6719H10.875V18.4531H9V19.6719ZM10.875 17.2344H9V16.0156H10.875V17.2344ZM17.125 19.6719H19V18.4531H17.125V19.6719ZM19 17.2344H17.125V16.0156H19V17.2344ZM17.125 14.7969H19V13.5781H17.125V14.7969Z" fill="#FA9302"/>
</svg>
