<svg width="24" height="24" viewBox="0 0 24 24" fill="none" xmlns="http://www.w3.org/2000/svg">
<path fill-rule="evenodd" clip-rule="evenodd" d="M21 12C21 16.9706 16.9706 21 12 21C7.02944 21 3 16.9706 3 12C3 7.02944 7.02944 3 12 3C16.9706 3 21 7.02944 21 12ZM14.25 8.625C14.25 9.86764 13.2427 10.875 12 10.875C10.7574 10.875 9.75 9.86764 9.75 8.625C9.75 7.38236 10.7574 6.375 12 6.375C13.2427 6.375 14.25 7.38236 14.25 8.625ZM12 13.125C9.73023 13.125 7.77447 14.4694 6.8855 16.4052C8.12332 17.841 9.95552 18.75 12 18.75C14.0445 18.75 15.8767 17.8411 17.1145 16.4053C16.2255 14.4694 14.2697 13.125 12 13.125Z" fill="white"/>
</svg>
